/vscmnt/brussel_pixiu_data/_data_brussel/112/vsc11236/PredSimResults/SUBJ06mtu3D/worker1.mot
version=1
nRows=8
nColumns=50
inDegrees=yes
endheader
                time	         pelvis_tilt	         pelvis_list	     pelvis_rotation	           pelvis_tx	           pelvis_ty	           pelvis_tz	       hip_flexion_r	     hip_adduction_r	      hip_rotation_r	        knee_angle_r	       ankle_angle_r	         mtp_angle_r	       hip_flexion_l	     hip_adduction_l	      hip_rotation_l	        knee_angle_l	       ankle_angle_l	         mtp_angle_l	    lumbar_extension	      lumbar_bending	     lumbar_rotation	 ercspn_r/activation	 intobl_r/activation	 extobl_r/activation	    abd_r/activation	    add_r/activation	hamstrings_r/activation	bifemsh_r/activation	glut_max_r/activation	iliopsoas_r/activation	rect_fem_r/activation	  vasti_r/activation	gastroc_r/activation	 soleus_r/activation	tib_ant_r/activation	 ercspn_l/activation	 intobl_l/activation	 extobl_l/activation	    abd_l/activation	    add_l/activation	hamstrings_l/activation	bifemsh_l/activation	glut_max_l/activation	iliopsoas_l/activation	rect_fem_l/activation	  vasti_l/activation	gastroc_l/activation	 soleus_l/activation	tib_ant_l/activation	
          0.00000000	         -7.11373789	         -0.62632577	          4.26465381	          0.00000000	          0.93164135	         -0.01010079	         31.14502637	         -0.58780069	         -3.01876923	         -5.49459291	          0.94654536	          0.22836863	        -10.98530765	          0.39304561	         -0.48466984	         -8.19471680	          5.42190090	         35.50968399	         -4.73563782	         -0.88628585	         -1.63931170	          0.16021911	          0.13633274	          0.01000243	          0.01000026	          0.26453885	          0.16592256	          0.17217959	          0.06180365	          0.11645498	          0.01001288	          0.01000099	          0.01954709	          0.01454054	          0.42879989	          0.13382578	          0.01000102	          0.01000148	          0.06494220	          0.01004563	          0.01212810	          0.14186543	          0.04308131	          0.47721839	          0.02109068	          0.01001231	          0.36457291	          0.30692527	          0.02113760	
          0.01234394	         -7.17942148	         -0.58326706	          4.28071486	          0.01667342	          0.93003895	         -0.00925320	         31.23146719	         -0.45280677	         -2.56564951	         -7.35924904	          0.64050371	          0.19723263	        -11.26125933	          0.33053406	         -0.90938027	         -9.35750916	          4.51518950	         37.34130840	         -4.43957228	         -0.60866180	         -2.01904932	          0.13289206	          0.11307294	          0.01000296	          0.02636952	          0.21940325	          0.15437193	          0.14280581	          0.08933951	          0.09658457	          0.01000321	          0.01000151	          0.01621290	          0.01205990	          0.49114121	          0.12022851	          0.01000107	          0.01000283	          0.05386132	          0.01005168	          0.01617513	          0.11766041	          0.03574358	          0.46803284	          0.01749876	          0.01235246	          0.33129700	          0.28945764	          0.01753098	
          0.02468788	         -7.22625875	         -0.54861304	          4.26379703	          0.03362780	          0.92874722	         -0.00828078	         31.14541789	         -0.32075163	         -2.21327011	         -8.95128203	          0.22692821	          0.18435307	        -11.33998536	          0.24387559	         -1.35682222	        -10.91399370	          3.47055909	         39.20485072	         -4.13700504	         -0.32300673	         -2.38215643	          0.15379574	          0.09377999	          0.01000218	          0.07804249	          0.23978449	          0.13957663	          0.11844240	          0.12820608	          0.08010461	          0.01000183	          0.01000105	          0.01344707	          0.01000246	          0.54903818	          0.12885861	          0.01000071	          0.01000166	          0.04467113	          0.01000968	          0.01506772	          0.09758545	          0.03069459	          0.45713830	          0.01452269	          0.01752857	          0.27477116	          0.26802342	          0.01453975	
          0.03703182	         -7.25321212	         -0.51085240	          4.21632213	          0.05068899	          0.92784802	         -0.00720075	         30.96638646	         -0.18910528	         -1.96624899	        -10.41500475	         -0.20315240	          0.15896957	        -11.17218611	          0.14171570	         -1.83052606	        -12.92718221	          2.26632003	         41.03595740	         -3.84788198	         -0.04104301	         -2.72237875	          0.15899950	          0.07777875	          0.01000230	          0.12648736	          0.28338227	          0.12764652	          0.09823473	          0.15882728	          0.06643658	          0.01000241	          0.01000383	          0.01115432	          0.01000294	          0.58145478	          0.15449671	          0.01000104	          0.01000153	          0.03704903	          0.01109146	          0.02229491	          0.08093603	          0.02545952	          0.43379405	          0.01205437	          0.01453970	          0.22788758	          0.24260524	          0.01205894	
          0.04937576	         -7.25962101	         -0.48294406	          4.14504901	          0.06769391	          0.92741160	         -0.00603716	         30.76010885	         -0.04568554	         -1.78539798	        -11.90276089	         -0.39213859	          0.12917661	        -10.70725142	          0.00399217	         -2.33019639	        -15.46229663	          0.90179668	         42.70436916	         -3.58544652	          0.25217337	         -3.03840900	          0.15912135	          0.06450772	          0.01000210	          0.16552170	          0.29616867	          0.11701613	          0.08147504	          0.18220608	          0.05510070	          0.01000212	          0.04748089	          0.01000275	          0.01000115	          0.60141248	          0.18089409	          0.01000122	          0.01000158	          0.03072746	          0.10110933	          0.02877194	          0.06712853	          0.02111573	          0.39706667	          0.01001217	          0.01205926	          0.18900355	          0.20258539	          0.01000154	
          0.06171970	         -7.24702195	         -0.47157719	          4.05296442	          0.08448831	          0.92753414	         -0.00481476	         30.52469733	          0.11855569	         -1.63651749	        -13.39991845	         -0.26687905	          0.09961100	         -9.91023667	         -0.18282597	         -2.86915958	        -18.54912407	         -0.59874847	         43.92926699	         -3.36064269	          0.56357426	         -3.32782914	          0.15750293	          0.05350111	          0.01000217	          0.19251791	          0.29824072	          0.10756485	          0.06757529	          0.18374719	          0.04569904	          0.01000183	          0.08590441	          0.01000185	          0.01000065	          0.58016197	          0.20122137	          0.01000164	          0.01000162	          0.02548452	          0.16135625	          0.04573718	          0.05568283	          0.01751298	          0.34751314	          0.01000391	          0.01000203	          0.15675422	          0.16801908	          0.01000099	
          0.07406364	         -7.21789616	         -0.47645502	          3.94391876	          0.10098235	          0.92826389	         -0.00356174	         30.22209113	          0.30591789	         -1.49011862	        -14.83841659	          0.25795689	          0.09881626	         -8.78123511	         -0.42877257	         -3.46508207	        -22.17253964	         -2.12692018	         44.24864919	         -3.17690639	          0.89185824	         -3.59006353	          0.15189537	          0.04437260	          0.01000215	          0.21050766	          0.26669324	          0.09975440	          0.05604756	          0.16637984	          0.03790157	          0.01000180	          0.14425050	          0.01000265	          0.01000105	          0.50860509	          0.21608819	          0.01000197	          0.01000174	          0.02113617	          0.18622166	          0.03833276	          0.04621138	          0.01452492	          0.28822484	          0.01000409	          0.01000058	          0.13000754	          0.13935040	          0.01000061	
          0.08640757	         -7.17624232	         -0.49075897	          3.81834738	          0.11714317	          0.92964326	         -0.00230976	         29.77226742	          0.50983396	         -1.33665611	        -16.06037263	          1.15721412	          0.19746250	         -7.35279814	         -0.73770678	         -4.11948649	        -26.22757181	         -3.76017173	         43.54293586	         -3.03138271	          1.22904482	         -3.82179595	          0.14098734	          0.03680179	          0.01000215	          0.21611695	          0.22119806	          0.09357761	          0.04648693	          0.14987949	          0.03143457	          0.01000171	          0.17468014	          0.01000416	          0.01000136	          0.42650734	          0.21919719	          0.01000193	          0.01000211	          0.01752977	          0.18814662	          0.03201098	          0.05726580	          0.01204675	          0.23904646	          0.01000352	          0.01000037	          0.10782462	          0.11557334	          0.01000052	
